<?xml version="1.0" encoding="UTF-8" standalone="no"?>
<!-- Created with Inkscape (http://www.inkscape.org/) -->

<svg
   width="2000"
   height="2000"
   viewBox="0 0 2000 2000"
   version="1.1"
   id="svg1"
   inkscape:version="1.4 (e7c3feb100, 2024-10-09)"
   sodipodi:docname="logo.svg"
   inkscape:export-filename="logo-100.png"
   inkscape:export-xdpi="4.8000002"
   inkscape:export-ydpi="4.8000002"
   xmlns:inkscape="http://www.inkscape.org/namespaces/inkscape"
   xmlns:sodipodi="http://sodipodi.sourceforge.net/DTD/sodipodi-0.dtd"
   xmlns:xlink="http://www.w3.org/1999/xlink"
   xmlns="http://www.w3.org/2000/svg"
   xmlns:svg="http://www.w3.org/2000/svg">
  <sodipodi:namedview
     id="namedview1"
     pagecolor="#000000"
     bordercolor="#ff0700"
     borderopacity="1"
     inkscape:showpageshadow="true"
     inkscape:pageopacity="0"
     inkscape:pagecheckerboard="1"
     inkscape:deskcolor="#b4b4b4"
     inkscape:document-units="px"
     showgrid="true"
     inkscape:zoom="0.78573232"
     inkscape:cx="1323.606"
     inkscape:cy="988.88639"
     inkscape:window-width="3840"
     inkscape:window-height="2048"
     inkscape:window-x="0"
     inkscape:window-y="0"
     inkscape:window-maximized="1"
     inkscape:current-layer="svg1"
     labelstyle="default"
     inkscape:export-bgcolor="#00000000">
    <inkscape:grid
       type="modular"
       id="grid1"
       units="px"
       originx="0"
       originy="0"
       spacingx="151.1811"
       spacingy="151.1811"
       empcolor="#0047cb"
       empopacity="0.30196078"
       color="#0099e5"
       opacity="0.14901961"
       empspacing="0"
       marginx="0"
       marginy="0"
       gapx="37.795276"
       gapy="37.795276"
       enabled="false"
       visible="true" />
    <inkscape:grid
       id="grid2"
       units="px"
       originx="0"
       originy="0"
       spacingx="50"
       spacingy="50"
       empcolor="#ffff00"
       empopacity="0.50196078"
       color="#ffff00"
       opacity="0.25098039"
       empspacing="5"
       enabled="true"
       visible="true"
       dotted="false" />
  </sodipodi:namedview>
  <defs
     id="defs1">
    <linearGradient
       id="swatch11"
       inkscape:swatch="solid">
      <stop
         style="stop-color:#000000;stop-opacity:1;"
         offset="0"
         id="stop11" />
    </linearGradient>
    <linearGradient
       id="swatch10"
       inkscape:swatch="solid">
      <stop
         style="stop-color:#ff0000;stop-opacity:1;"
         offset="0"
         id="stop10" />
    </linearGradient>
    <linearGradient
       inkscape:collect="always"
       xlink:href="#swatch10"
       id="linearGradient11"
       x1="-573.06598"
       y1="0"
       x2="573.06598"
       y2="0"
       gradientUnits="userSpaceOnUse" />
    <linearGradient
       inkscape:collect="always"
       xlink:href="#swatch10"
       id="linearGradient12"
       gradientUnits="userSpaceOnUse"
       x1="-573.06598"
       y1="0"
       x2="573.06598"
       y2="0"
       gradientTransform="matrix(1.2870525,0,0,1.2870525,-164.35647,0)" />
  </defs>
  <path
     id="path16-2"
     style="fill:#ffaa00;fill-opacity:1;fill-rule:evenodd;stroke-width:2.28171"
     d="m 1151.4473,249.83008 c -198.91243,0 -389.67786,79.01763 -530.33015,219.66991 -140.65228,140.65229 -219.66991,331.41772 -219.66991,530.33009 0,198.91242 79.01763,389.67782 219.66991,530.33012 140.65229,140.6523 331.41772,219.6699 530.33015,219.6699 393.2497,-1.0003 449.4043,2.5293 449.4043,2.5293 v -249.4488 c 0,0 -193.3397,-4.0377 -449.4043,-3.0805 -132.6083,0 -259.78526,-52.6784 -353.55345,-146.4466 -93.76819,-93.7682 -146.44661,-220.9452 -146.44661,-353.55342 0,-132.60824 52.67842,-259.7852 146.44661,-353.55339 93.76819,-93.76819 220.94515,-146.44661 353.55345,-146.44661 256.7012,0.10608 449.4043,0 449.4043,0 v -251.2727 c 0,0 -55.4871,1.3822 -449.4043,1.2727 z"
     sodipodi:nodetypes="csssccccssscccc" />
  <g
     inkscape:label="Layer 1"
     inkscape:groupmode="layer"
     id="layer1" />
  <g
     inkscape:label="Rendered Gears"
     transform="matrix(0.61024393,0,0,0.61024393,1251.4473,999.83008)"
     id="g11"
     style="fill:url(#linearGradient11);stroke:none">
    <path
       id="path11"
       style="fill:url(#linearGradient12);stroke:none;stroke-width:1.28705"
       d="m -191.62419,-736.92355 -36.98252,84.59091 -5.25213,40.30791 4.78484,42.13223 -93.5781,18.61448 -11.70446,-40.75918 -20.27878,-35.22862 -66.53973,-63.99528 -50.38009,20.86768 -1.79551,92.30108 10.56826,39.25172 20.54762,37.09774 -79.33239,53.00455 -26.41105,-33.17385 -32.21688,-24.78837 -85.96396,-33.66354 -38.5604,38.5604 33.66353,85.96396 24.78517,32.21688 33.17705,26.41106 -53.00454,79.33239 -37.09775,-20.54443 -39.25172,-10.57146 -92.30107,1.79552 -20.87088,50.38328 63.99848,66.53654 35.22861,20.28197 40.75919,11.70127 -18.61448,93.578097 -42.13543,-4.784844 -40.30791,5.255327 -84.58772,36.982522 v 54.531216 l 84.58772,36.982522 40.30791,5.255327 42.13543,-4.784844 18.61448,93.578097 -40.75919,11.70127 -35.22861,20.28197 -63.99848,66.53654 20.87088,50.38328 92.30107,1.79552 39.25172,-10.57146 37.09775,-20.54443 53.00454,79.33239 -33.17705,26.41106 -24.78517,32.21688 -33.66353,85.96396 38.5604,38.5604 85.96396,-33.66354 32.21688,-24.78837 26.41105,-33.17385 79.33239,53.00455 -20.54762,37.09774 -10.56826,39.25172 1.79551,92.30108 50.38009,20.86768 66.53973,-63.99528 20.27878,-35.22862 11.70446,-40.75918 93.5781,18.61448 -4.78484,42.13223 5.25213,40.30791 36.98252,84.59091 h 54.53441 l 36.98253,-84.59091 5.255323,-40.30791 -4.784843,-42.13223 93.574901,-18.61448 11.704464,40.75918 20.278776,35.22862 66.539734,63.99528 50.380085,-20.86768 1.79872,-92.30108 -10.57147,-39.25172 -20.54442,-37.09774 79.32919,-53.00455 26.41106,33.17385 32.21688,24.78837 85.96396,33.66354 38.5604,-38.5604 -33.66034,-85.96396 -24.78837,-32.21688 -33.17705,-26.41106 53.00775,-79.33239 37.09454,20.54443 39.25172,10.57146 92.30428,-1.79552 20.86768,-50.38328 -63.99529,-66.53654 -35.23181,-20.28197 -40.75599,-11.70127 18.61128,-93.578097 42.13543,4.784844 40.30791,-5.255327 84.58772,-36.982522 v -54.531216 l -84.58772,-36.982522 -40.30791,-5.255327 -42.13543,4.784844 -18.61128,-93.578097 40.75599,-11.70127 35.23181,-20.28197 63.99529,-66.53654 -20.86768,-50.38328 -92.30428,-1.79552 -39.25172,10.57146 -37.09454,20.54443 -53.00775,-79.33239 33.17705,-26.41106 24.78837,-32.21688 33.66034,-85.96396 -38.5604,-38.5604 -85.96396,33.66354 -32.21688,24.78837 -26.41106,33.17385 -79.32919,-53.00455 20.54442,-37.09774 10.57147,-39.25172 -1.79872,-92.30108 -50.380085,-20.86768 -66.539734,63.99528 -20.278776,35.22862 -11.704464,40.75918 -93.574901,-18.61448 4.784843,-42.13223 -5.255323,-40.30791 -36.98253,-84.59091 z m 27.75529,409.18576 A 327.73779,327.73779 0 0 1 163.8689,0 327.73779,327.73779 0 0 1 -163.8689,327.73779 327.73779,327.73779 0 0 1 -491.60669,0 327.73779,327.73779 0 0 1 -163.8689,-327.73779 Z" />
  </g>
</svg>
